<svg width="72" height="72" viewBox="0 0 72 72" fill="none" xmlns="http://www.w3.org/2000/svg">
<rect width="72" height="72" rx="36" fill="#F6F6F6"/>
<path d="M45.8884 34.395L45.6997 33.5144L40.1282 40.5144C41.467 41.4069 42.2711 42.9094 42.2711 44.5184V49.3778C42.2711 51.5345 42.7732 53.6615 43.7377 55.5905L43.8425 55.8001H46.3963C47.0104 55.8001 47.3738 55.1126 47.0278 54.6052C46.1625 53.3361 45.6997 51.8357 45.6997 50.2996V48.8732C45.6997 48.2539 45.7466 47.6356 45.8399 47.0234L46.1959 44.6901C46.7179 41.2681 46.6137 37.7798 45.8884 34.395Z" fill="#824F4D"/>
<path d="M29.1078 43.3594L30.4142 38.3714L28.0476 36.7814C25.6798 35.1905 22.6011 37.3705 23.3154 40.1322C23.381 40.3859 23.4142 40.6468 23.4142 40.9088V49.3129C23.4142 51.5253 23.8009 53.7207 24.557 55.7999H27.3965C28.0106 55.7999 28.374 55.1124 28.028 54.6051C27.1627 53.3359 26.6999 51.8355 26.6999 50.2994V47.1099C26.6999 46.2086 27.1728 45.3733 27.9457 44.9096C28.5207 44.5646 28.9379 44.0081 29.1078 43.3594Z" fill="#824F4D"/>
<path d="M28.3767 54.9067L27.4832 53.5963C27.0826 53.0087 26.4175 52.6572 25.7064 52.6572C24.6618 52.6572 23.9347 53.6952 24.2917 54.677L24.7001 55.8001H27.9046C28.3637 55.8001 28.6354 55.2861 28.3767 54.9067Z" fill="#2C313E"/>
<path d="M47.2337 54.9067L46.3402 53.5963C45.9396 53.0087 45.2745 52.6572 44.5634 52.6572C43.5187 52.6572 42.7916 53.6952 43.1487 54.677L43.557 55.8001H46.7615C47.2206 55.8001 47.4923 55.2861 47.2337 54.9067Z" fill="#2C313E"/>
<path d="M49.9856 13.9428C48.4999 13.6 47.7475 14.2762 47.557 14.6571C47.557 14.7524 47.3285 15.1714 46.4143 16.0857C45.2716 17.2286 44.5572 16.3714 42.9857 17.3714C41.4143 18.3714 42.9856 20.3714 39.8428 22.5143C36.6999 24.6571 37.8428 27.6571 39.2713 27.9429C40.6999 28.2286 43.1285 26.8 44.1285 23.8C45.1285 20.8 48.4142 18.6571 49.8428 18.9429C51.2713 19.2286 52.2713 19.2286 53.1285 18.0857C53.9856 16.9429 51.8428 14.3714 49.9856 13.9428Z" fill="#824F4D"/>
<path d="M16.7299 29.6572C18.6728 26.8001 21.8252 28.0858 23.1585 29.0858C23.0157 29.3715 22.5015 30.0001 21.5872 30.2287C20.4444 30.5144 21.7301 38.3715 21.5872 41.0858C21.4444 43.8001 17.73 49.5144 15.7299 48.6572C13.7299 47.8001 15.1585 44.3715 15.7299 42.8001C16.3014 41.2287 14.3014 33.2287 16.7299 29.6572Z" fill="#824F4D"/>
<path d="M25.9653 43.3594L27.2717 38.3714L30.0367 39.5912C31.4163 40.1999 32.9077 40.5142 34.4156 40.5142H36.7697C37.3765 40.5142 37.9697 40.6938 38.4745 41.0304C39.3296 41.6004 39.8431 42.5601 39.8431 43.5877V49.3776C39.8431 51.5343 40.3453 53.6614 41.3098 55.5904L41.4146 55.8H43.9684C44.5824 55.8 44.9458 55.1124 44.5999 54.6051C43.7345 53.3359 43.2717 51.8355 43.2717 50.2994V49.0417C43.2717 48.3107 43.3401 47.5813 43.476 46.863L43.9349 44.4373C44.1561 43.268 44.6576 42.1697 45.3963 41.2366C46.4258 39.9361 46.986 38.3261 46.986 36.6674V33.9688C46.986 31.4214 47.6297 28.9153 48.8573 26.6832L50.1288 24.3714L51.2927 25.0876C51.746 25.3666 52.2678 25.5142 52.8 25.5142H53.3152C54.3026 25.5142 55.1689 24.8558 55.4332 23.9044C55.6029 23.2933 55.5005 22.6388 55.1522 22.1088L53.3159 19.3145C52.7302 18.4232 51.8764 17.741 50.8777 17.3665L50.5752 17.2531C49.5553 16.8706 48.4271 16.8966 47.4259 17.3257C46.4968 17.7239 45.7412 18.4418 45.296 19.3493L43.5811 22.845C42.7264 24.5873 41.3864 26.0454 39.7223 27.0439C37.255 28.5243 34.2722 28.8782 31.527 28.0163L28.292 27.0007C25.435 26.1037 22.3201 27.0446 20.4374 29.3732C18.9852 31.1693 18.4699 33.5473 19.0482 35.7835L19.8395 38.8432C20.1265 39.9527 20.2717 41.0942 20.2717 42.2403V49.3129C20.2717 51.5253 20.6585 53.7207 21.4146 55.8H24.2541C24.8682 55.8 25.2315 55.1124 24.8856 54.6051C24.0203 53.3359 23.5574 51.8355 23.5574 50.2994V47.11C23.5574 46.2086 24.0303 45.3734 24.8032 44.9096C25.3783 44.5646 25.7954 44.0081 25.9653 43.3594Z" fill="#B06D61"/>
<path d="M25.0907 54.9067L24.1972 53.5963C23.7966 53.0087 23.1315 52.6572 22.4204 52.6572C21.3758 52.6572 20.6487 53.6952 21.0057 54.677L21.4141 55.8001H24.6186C25.0777 55.8001 25.3493 55.2861 25.0907 54.9067Z" fill="#3F4553"/>
<path d="M44.9477 54.9067L44.0542 53.5963C43.6536 53.0087 42.9885 52.6572 42.2774 52.6572C41.2328 52.6572 40.5057 53.6952 40.8627 54.677L41.2711 55.8001H44.4756C44.9347 55.8001 45.2063 55.2861 44.9477 54.9067Z" fill="#3F4553"/>
<path d="M49.1281 16.8C48.9852 15.0858 47.7948 14.2286 47.1281 13.8C46.89 14.2286 46.271 15.2286 46.4138 16.6572C46.5567 18.0858 47.7472 19.181 48.4138 19.6572C48.6519 19.2762 49.271 18.5143 49.1281 16.8Z" fill="#B06D61"/>
</svg>
