<svg width="151" height="138" viewBox="0 0 151 138" fill="none" xmlns="http://www.w3.org/2000/svg">
<g clip-path="url(#clip0_100_2288)">
<circle cx="98.6972" cy="79.707" r="22.6034" fill="#DDDEE0"/>
<circle cx="54.6802" cy="83.2759" r="20.2241" fill="#E9EAEB"/>
<circle cx="75.4987" cy="44.612" r="38.6638" fill="#DDDEE0"/>
<circle cx="40.9989" cy="60.0775" r="27.9569" fill="#E9EAEB"/>
<circle cx="109.999" cy="60.0775" r="27.9569" fill="#E9EAEB"/>
<path fill-rule="evenodd" clip-rule="evenodd" d="M86.8008 138C81.4473 129.365 79.7818 126.487 79.068 100.583C78.9345 95.7375 78.8209 91.1978 78.7154 86.9788C78.1158 63.0069 77.7752 49.3877 75.4991 48.7759V138H86.8008ZM65.6361 136.307C70.262 127.052 71.2553 125.064 71.9299 100.583C72.0635 95.7375 72.177 91.1978 72.2825 86.9788C72.8821 63.0069 73.2228 49.3877 75.4989 48.7759V138H64.792C65.0861 137.407 65.3672 136.845 65.6361 136.307Z" fill="#B9BBBD"/>
<path d="M17.7317 105.268C23.1974 105.811 31.4051 107.567 31.0593 115.104C24.5633 117.813 21.1511 111.282 17.7317 105.268Z" fill="#79B08F" stroke="#79B08F" stroke-width="1.18966"/>
<path d="M126.171 123.992C124.196 128.415 118.188 137.025 109.956 136.075C108.1 128.312 118.874 123.912 126.171 123.992Z" fill="#1C7941" stroke="#1C7941" stroke-width="1.18966"/>
<path d="M49.3747 75.9215C53.2572 84.3572 67.3527 89.2421 72.8991 90.4138C77.059 88.3049 74.9791 85.4929 74.9791 83.3839C74.9791 82.0862 69.842 83.4921 63.6022 82.0862C54.6796 80.0758 48.6814 72.4066 49.3747 75.9215Z" fill="#B9BBBD"/>
<path d="M97.0385 58.4143C95.5445 67.5797 83.2606 76.0443 78.227 78.6517C73.6555 77.7277 74.9109 74.4631 74.3489 72.4304C74.003 71.1796 79.329 71.1656 84.9684 68.1477C93.0326 63.8321 96.77 54.8418 97.0385 58.4143Z" fill="#B9BBBD"/>
</g>
<defs>
<clipPath id="clip0_100_2288">
<rect width="151" height="138" fill="white"/>
</clipPath>
</defs>
</svg>
